<svg width="14" height="17" viewBox="0 0 14 17" fill="none" xmlns="http://www.w3.org/2000/svg">
<path d="M1.25991 6.37913C1.31074 5.66748 1.34674 5.17252 1.41418 4.79337C1.47994 4.42363 1.5674 4.21852 1.68753 4.06722C1.78095 3.94957 1.89152 3.84662 2.01553 3.76182C2.175 3.65277 2.38582 3.58015 2.7593 3.5409C3.1423 3.50064 3.63857 3.5 4.35203 3.5H9.64797C10.3614 3.5 10.8577 3.50064 11.2407 3.5409C11.6142 3.58015 11.825 3.65277 11.9845 3.76182C12.1085 3.84662 12.219 3.94957 12.3125 4.06722C12.4326 4.21852 12.5201 4.42363 12.5858 4.79337C12.6533 5.17252 12.6893 5.66748 12.7401 6.37913L13.2258 13.1791C13.2836 13.9886 13.3233 14.5544 13.3061 14.9901C13.2892 15.4167 13.2186 15.6534 13.1022 15.829C13.0112 15.9661 12.8983 16.0874 12.768 16.1879C12.6011 16.3165 12.3701 16.4038 11.9458 16.451C11.5124 16.4993 10.9452 16.5 10.1337 16.5H3.86632C3.05482 16.5 2.48759 16.4993 2.05424 16.451C1.62991 16.4038 1.39888 16.3165 1.23202 16.1879C1.10169 16.0874 0.988781 15.9661 0.897827 15.829C0.781386 15.6534 0.710783 15.4167 0.693915 14.9901C0.676687 14.5544 0.716376 13.9886 0.774193 13.1791L1.25991 6.37913Z" stroke="#2A2A3C"/>
<path d="M10 4C10 2.34315 8.65685 1 7 1C5.34315 1 4 2.34315 4 4" stroke="#2A2A3C"/>
</svg>
