<svg width="105" height="17" viewBox="0 0 105 17" fill="none" xmlns="http://www.w3.org/2000/svg">
<path d="M9.02 8.46L9.2 8.08C10.4267 8.08 11.4067 8.26667 12.14 8.64C12.8867 9 13.4267 9.48 13.76 10.08C14.1067 10.6667 14.28 11.3133 14.28 12.02C14.28 12.8067 14.0867 13.5 13.7 14.1C13.3267 14.7 12.7733 15.1667 12.04 15.5C11.3067 15.8333 10.4067 16 9.34 16H0.42L1.62 8.3L0.42 0.999999H9.02C10.4067 0.999999 11.46 1.32667 12.18 1.98C12.9133 2.62 13.28 3.5 13.28 4.62C13.28 5.19333 13.14 5.76 12.86 6.32C12.58 6.88 12.1267 7.36 11.5 7.76C10.8867 8.14667 10.06 8.38 9.02 8.46ZM1.6 15.5L1.18 15H9.46C10.6067 15 11.5 14.7467 12.14 14.24C12.7933 13.7333 13.12 12.9933 13.12 12.02C13.12 10.98 12.7333 10.1867 11.96 9.64C11.2 9.08 10.0667 8.8 8.56 8.8H2.08V7.8H8.62C9.62 7.8 10.4533 7.53333 11.12 7C11.7867 6.46667 12.12 5.67333 12.12 4.62C12.12 3.86 11.8467 3.23333 11.3 2.74C10.7667 2.24667 9.97333 2 8.92 2H1.18L1.6 1.5L2.72 8.3L1.6 15.5ZM30.1105 8.4V9.4H23.1905H23.1705C22.2105 9.4 21.3638 9.22667 20.6305 8.88C19.8971 8.52 19.3238 8.02667 18.9105 7.4C18.4971 6.76 18.2905 6.02667 18.2905 5.2C18.2905 4.37333 18.4971 3.64667 18.9105 3.02C19.3238 2.38 19.8971 1.88667 20.6305 1.54C21.3638 1.18 22.2105 0.999999 23.1705 0.999999H30.8905V16H29.7705V1.5L30.2705 2H23.1705C22.0105 2 21.0905 2.29333 20.4105 2.88C19.7438 3.45333 19.4105 4.22667 19.4105 5.2C19.4105 6.17333 19.7438 6.95333 20.4105 7.54C21.0905 8.11333 22.0105 8.4 23.1705 8.4H30.1105ZM25.9505 8.98L19.5305 16H18.0505L24.4705 8.98H25.9505ZM42.5959 16.24C41.2226 16.24 40.0226 16.0333 38.9959 15.62C37.9826 15.1933 37.1826 14.6067 36.5959 13.86C36.0093 13.1 35.6693 12.22 35.5759 11.22H36.6959C36.8559 12.4867 37.4426 13.4733 38.4559 14.18C39.4826 14.8733 40.8626 15.22 42.5959 15.22C44.2893 15.22 45.6159 14.94 46.5759 14.38C47.5359 13.8067 48.0159 12.9533 48.0159 11.82C48.0159 10.8733 47.6293 10.16 46.8559 9.68C46.0959 9.2 44.8893 8.96 43.2359 8.96H39.9759V7.96H43.1559C44.1426 7.96 44.9626 7.82667 45.6159 7.56C46.2693 7.28 46.7559 6.91333 47.0759 6.46C47.4093 5.99333 47.5759 5.48667 47.5759 4.94C47.5759 4.26 47.3693 3.68667 46.9559 3.22C46.5426 2.75333 45.9693 2.4 45.2359 2.16C44.5026 1.90667 43.6559 1.78 42.6959 1.78C41.1226 1.78 39.8359 2.11333 38.8359 2.78C37.8493 3.44667 37.2559 4.37333 37.0559 5.56H35.9359C36.0559 4.64 36.4026 3.82 36.9759 3.1C37.5493 2.36667 38.3226 1.79333 39.2959 1.38C40.2826 0.966666 41.4293 0.76 42.7359 0.76C43.9759 0.76 45.0426 0.933333 45.9359 1.28C46.8293 1.62667 47.5159 2.10667 47.9959 2.72C48.4893 3.33333 48.7359 4.04 48.7359 4.84C48.7359 5.54667 48.5293 6.18667 48.1159 6.76C47.7026 7.33333 47.1026 7.79333 46.3159 8.14C45.5293 8.47333 44.5826 8.64 43.4759 8.64V8.3C44.6359 8.26 45.6426 8.38 46.4959 8.66C47.3493 8.94 48.0093 9.35333 48.4759 9.9C48.9426 10.4333 49.1759 11.08 49.1759 11.84C49.1759 12.7333 48.9159 13.5133 48.3959 14.18C47.8893 14.8333 47.1426 15.34 46.1559 15.7C45.1826 16.06 43.9959 16.24 42.5959 16.24ZM54.6606 12V11H65.3006V12H54.6606ZM60.6206 0.999999L68.2006 16H66.9406L59.5806 1.28H60.5606L53.1806 16H51.9206L59.5006 0.999999H60.6206ZM72.4166 0.999999H73.5366V16H72.4166V0.999999ZM85.0166 0.999999H86.1366V16H85.0166V0.999999ZM72.9366 8H85.8166V9H72.9366V8ZM92.0142 16V0.999999H93.1342V15.5L92.6342 15H99.3542C100.514 15 101.441 14.7 102.134 14.1C102.828 13.4867 103.174 12.68 103.174 11.68C103.174 10.68 102.828 9.88 102.134 9.28C101.441 8.66667 100.514 8.36 99.3542 8.36H92.4942V7.36H99.3342C100.321 7.36 101.188 7.54667 101.934 7.92C102.694 8.28 103.281 8.78667 103.694 9.44C104.121 10.08 104.334 10.8267 104.334 11.68C104.334 12.52 104.121 13.2667 103.694 13.92C103.281 14.5733 102.694 15.0867 101.934 15.46C101.188 15.82 100.321 16 99.3342 16H92.0142Z" fill="#2A2A3C"/>
</svg>
